<?xml version="1.0" standalone="no"?>
<!DOCTYPE svg PUBLIC "-//W3C//DTD SVG 20010904//EN"
 "http://www.w3.org/TR/2001/REC-SVG-20010904/DTD/svg10.dtd">
<svg version="1.0" xmlns="http://www.w3.org/2000/svg"
 width="928.000000pt" height="928.000000pt" viewBox="0 0 928.000000 928.000000"
 preserveAspectRatio="xMidYMid meet">
<metadata>
Created by potrace 1.14, written by Peter Selinger 2001-2017
</metadata>
<g transform="translate(0.000000,928.000000) scale(0.100000,-0.100000)"
fill="#000000" stroke="none">
<path d="M6390 9239 c-106 -29 -170 -76 -243 -176 -37 -50 -98 -135 -117 -163
-8 -12 -53 -74 -99 -138 -47 -65 -104 -144 -128 -177 -24 -33 -49 -68 -56 -77
-14 -19 -72 -100 -139 -196 -26 -37 -53 -74 -60 -82 -7 -8 -11 -16 -10 -19 2
-2 -1 -7 -6 -10 -8 -5 -68 -85 -144 -194 -34 -49 -109 -153 -116 -162 -12 -16
-155 -215 -197 -275 -21 -30 -41 -57 -44 -60 -3 -3 -10 -13 -16 -22 -5 -9
-100 -141 -210 -293 -110 -152 -204 -284 -210 -293 -15 -24 -22 -34 -50 -68
-14 -18 -25 -35 -25 -39 0 -4 -6 -13 -13 -19 -8 -6 -80 -105 -162 -221 -82
-115 -155 -216 -162 -223 -7 -7 -13 -17 -13 -21 0 -4 -8 -17 -17 -29 -46 -53
-53 -63 -53 -69 0 -3 -16 -25 -35 -49 -19 -23 -35 -47 -35 -52 0 -6 -3 -12 -8
-14 -4 -1 -52 -66 -107 -143 -55 -77 -102 -142 -105 -145 -3 -3 -25 -34 -50
-70 -24 -36 -48 -69 -53 -75 -5 -5 -34 -47 -66 -91 -32 -45 -66 -93 -77 -107
-24 -32 -23 -30 -213 -297 -188 -265 -221 -304 -275 -332 -79 -41 -197 -21
-262 46 -61 61 -76 159 -37 245 13 31 27 58 32 61 4 3 23 28 41 55 19 28 37
52 42 53 4 2 8 10 8 18 0 8 3 14 8 14 4 0 18 17 32 38 39 57 178 254 198 278
9 12 22 28 27 37 58 87 81 117 87 117 5 0 8 4 8 9 0 8 294 426 310 441 3 3 10
12 15 21 28 45 65 97 77 110 8 8 23 30 35 49 12 19 31 45 42 57 19 20 19 22 3
27 -82 25 -381 39 -530 24 -149 -14 -163 -16 -242 -33 -14 -3 -34 -7 -45 -9
-36 -7 -110 -27 -135 -37 -14 -5 -34 -11 -45 -13 -80 -17 -295 -122 -435 -215
-191 -125 -417 -349 -560 -556 -19 -27 -41 -56 -47 -63 -7 -7 -13 -17 -13 -21
0 -4 -11 -21 -25 -37 -14 -16 -25 -32 -25 -36 0 -4 -6 -13 -13 -20 -6 -7 -21
-30 -32 -50 -11 -21 -23 -38 -27 -38 -5 0 -8 -5 -8 -11 0 -6 -15 -37 -34 -68
-59 -99 -197 -363 -196 -376 0 -3 -11 -26 -24 -53 -13 -26 -43 -92 -66 -147
-23 -55 -48 -113 -55 -130 -21 -49 -67 -166 -69 -178 -2 -7 -7 -23 -13 -37
-44 -108 -206 -601 -219 -666 -1 -7 -13 -52 -27 -100 -23 -83 -36 -134 -38
-151 -1 -5 -5 -18 -10 -31 -5 -12 -11 -33 -13 -45 -4 -19 -60 -262 -71 -307
-10 -40 -66 -316 -70 -345 -2 -11 -4 -20 -5 -20 -1 0 -4 -13 -6 -30 -3 -16 -9
-52 -14 -80 -5 -27 -12 -64 -15 -82 -6 -35 -60 21 1873 -1903 l533 -530 47 5
c26 3 58 8 72 10 14 3 52 8 84 11 33 3 69 8 80 10 12 2 37 7 56 10 60 9 73 12
150 27 41 9 86 18 100 21 44 9 71 15 88 20 9 3 28 7 42 10 14 3 43 10 65 16
22 6 49 13 60 15 11 3 52 14 90 25 39 12 77 23 85 25 13 4 108 31 135 39 6 2
18 6 28 9 22 9 46 16 52 17 6 0 139 48 170 60 11 4 90 35 175 68 85 33 178 71
205 83 28 12 52 23 55 24 18 6 74 31 155 70 52 25 99 45 105 45 5 0 10 5 10
10 0 6 5 10 11 10 16 0 102 43 111 55 4 5 8 6 8 1 0 -5 6 -4 13 1 11 9 54 33
192 108 84 45 160 89 165 95 3 4 13 9 22 13 9 3 59 32 110 65 51 32 101 61
111 65 9 3 17 11 17 17 0 5 6 10 14 10 8 0 21 6 28 13 7 6 51 37 97 67 46 30
89 59 95 65 6 5 31 24 56 40 25 17 51 36 59 43 8 7 26 21 40 30 27 17 182 132
191 142 3 3 50 41 105 85 103 82 145 117 177 147 10 10 20 18 23 18 3 0 18 12
33 27 16 16 61 57 102 93 195 173 459 438 460 463 0 4 9 17 20 29 11 12 33 56
49 97 25 63 29 88 27 146 -4 79 -8 99 -32 152 -17 37 -98 139 -139 176 -26 23
-122 72 -160 81 -16 5 -39 10 -50 13 -24 6 -131 5 -163 -2 -87 -17 -168 -60
-247 -131 -35 -31 -111 -68 -124 -59 -5 3 -13 1 -16 -5 -4 -6 -14 -9 -23 -6
-10 3 -29 7 -43 10 -138 23 -218 186 -155 317 10 21 161 179 357 375 410 408
388 385 395 407 3 9 10 17 15 17 6 0 7 4 4 10 -3 5 -2 10 2 10 12 0 42 72 54
132 13 57 6 178 -11 224 -21 55 -44 99 -69 134 -29 39 -105 111 -118 111 -4 0
-15 6 -23 14 -8 7 -44 23 -80 35 -70 23 -207 26 -254 6 -24 -11 -76 -51 -126
-96 -15 -14 -49 -43 -75 -65 -27 -22 -53 -45 -59 -50 -6 -6 -36 -30 -66 -55
-30 -24 -69 -58 -87 -75 -17 -16 -46 -41 -63 -54 -18 -14 -45 -37 -61 -52 -36
-33 -85 -57 -135 -65 -22 -3 -42 -8 -46 -10 -4 -2 -9 0 -13 6 -3 5 -18 10 -32
10 -39 0 -115 58 -142 109 -43 79 -26 186 41 262 13 15 61 60 108 100 47 41
90 78 96 84 6 6 35 31 64 56 29 24 75 64 103 89 27 25 59 53 71 63 49 42 66
57 161 141 55 49 131 116 169 150 39 33 78 69 88 79 10 9 23 17 30 17 6 0 9 3
5 6 -3 3 8 18 26 32 18 14 52 44 77 67 25 22 83 74 130 115 46 41 91 82 100
90 9 8 56 51 105 95 50 44 106 96 126 115 20 19 76 71 124 115 48 44 110 102
139 128 89 85 295 280 365 347 89 85 382 364 437 415 145 136 273 257 318 300
59 57 113 140 121 187 3 17 8 35 11 40 6 9 6 112 1 138 -38 180 -161 314 -331
360 -152 42 -282 -1 -437 -141 -65 -59 -188 -169 -223 -200 -22 -19 -49 -43
-61 -54 -11 -11 -56 -51 -99 -90 -43 -38 -88 -79 -100 -90 -12 -11 -58 -51
-101 -90 -44 -38 -94 -83 -112 -100 -17 -16 -55 -50 -84 -75 -28 -25 -64 -56
-79 -70 -15 -14 -60 -54 -100 -90 -40 -36 -84 -74 -96 -86 -13 -12 -58 -52
-101 -90 -43 -38 -89 -80 -104 -94 -15 -14 -57 -52 -95 -85 -37 -33 -92 -82
-122 -110 -30 -27 -64 -58 -76 -68 -11 -10 -50 -44 -86 -77 -36 -32 -76 -68
-90 -80 -14 -11 -41 -35 -60 -53 -20 -18 -71 -63 -114 -102 -43 -38 -94 -84
-113 -102 -19 -17 -59 -53 -90 -80 -30 -26 -70 -61 -87 -78 -18 -16 -61 -55
-96 -85 -34 -30 -77 -68 -95 -85 -17 -16 -67 -61 -111 -100 -43 -38 -90 -81
-105 -95 -15 -14 -49 -43 -74 -65 -26 -22 -66 -58 -89 -80 -118 -112 -152
-132 -236 -139 -47 -3 -97 12 -140 43 -110 80 -125 201 -40 327 16 25 30 47
30 48 0 2 32 51 70 110 39 58 70 108 70 111 0 4 6 12 13 20 6 7 30 43 52 79
22 36 43 66 48 66 4 0 7 4 7 9 0 5 22 42 48 83 27 40 68 104 93 143 24 38 68
105 97 148 28 43 52 81 52 84 0 4 11 21 25 39 14 18 25 37 25 43 0 6 5 11 10
11 6 0 10 7 10 15 0 8 5 15 10 15 6 0 10 7 10 15 0 8 5 15 10 15 6 0 10 5 10
10 0 6 16 33 35 60 19 27 35 52 35 54 0 3 121 190 137 212 14 18 33 49 40 64
4 8 9 17 13 20 3 3 62 93 130 200 69 107 128 197 132 198 5 2 8 8 8 14 0 5 10
24 23 41 12 17 27 39 32 48 6 9 19 29 29 45 41 63 105 162 147 229 24 39 46
72 49 75 3 3 23 33 44 68 21 34 44 69 52 77 9 8 13 15 10 15 -4 0 10 22 29 50
19 27 35 54 35 60 0 5 5 10 10 10 6 0 10 7 10 15 0 8 5 15 10 15 6 0 10 7 10
15 0 8 5 15 10 15 6 0 10 4 10 10 0 5 20 39 45 76 25 36 45 67 45 69 0 3 102
160 117 181 4 5 13 19 20 30 6 10 34 55 62 100 87 140 100 247 42 369 -75 159
-267 257 -421 214z"/>
</g>
</svg>
